# xmcd
#
# Track frame offsets: 
#        150
#        1669
#        16958
#        31928
#        44279
#        59326
#        73652
#        89181
#        106655
#        124217
#        128029
#        143077
#        154511
#        168598
#        194807
#        218405
#        246430
#
# Disc length: 3565 seconds
#
# Revision: 0
# Processed by: cddbd v1.5.2PL0 Copyright (c) Steve Scherf et al.
# Submitted via: ExactAudioCopy v1.1
#
DISCID=e90deb11
DTITLE=Piano Blues and Boogie Woogie - Radio Flora - Blues Line 28.07.20
DTITLE=02
DYEAR=2002
DGENRE=Blues
TTITLE0=Andreas Wodrich - Einleitung
TTITLE1=Forrest Sykes - Tonky Boogie
TTITLE2=Alex Moore - Whistlin’ Alex Blues
TTITLE3=Otis Spann - Marie
TTITLE4=Otis Spann - Burning fire
TTITLE5=Henry Gray - That ain’t right
TTITLE6=Henry Gray - Showers of Rain
TTITLE7=Sunnyland Slim - Sunnyland Special
TTITLE8=Katie Webster - I know that’s right
TTITLE9=Werbung - 3. Sarstedter Blues and Rock Festival
TTITLE10=Champion Jack Dupree - Nasty Boogie
TTITLE11=Omar Shariff - Blue Tumbleweed
TTITLE12=Omar Shariff - So you want to be a Man
TTITLE13=Pinetop Perkins - Lend me your love
TTITLE14=Axel Zwingenberger - Boogie Call Blues
TTITLE15=Axel Zwingenberger - Crawded Hole
TTITLE16=Pinetop Perkins - Rain
EXTD=
EXTT0=
EXTT1=
EXTT2=
EXTT3=
EXTT4=
EXTT5=
EXTT6=
EXTT7=
EXTT8=
EXTT9=
EXTT10=
EXTT11=
EXTT12=
EXTT13=
EXTT14=
EXTT15=
EXTT16=
PLAYORDER=
